# xmcd
#
# Track frame offsets:
# 150
# 10609
# 29233
# 40703
# 54481
# 72407
# 91482
# 103113
# 115333
# 130091
# 146760
# 159242
#
# Disc length: 2250 seconds
#
#
# Revision: 0
# Processed by: cddbd v1.5.1PL2 Copyright (c) Steve Scherf et al.
# Submitted via: FreeRIP 2.944 
#
DISCID=a208c80c
DTITLE=High Street A Capella - Gordon Dogneck
DYEAR=2005
DGENRE=
TTITLE0=I Want You Back
TTITLE1=Best of My Love
TTITLE2=Set Me as a Seal
TTITLE3=In the Still of the Night
TTITLE4=Amie
TTITLE5=And So it Goes
TTITLE6=It's So Hard to Say Goodbye to Yesterday
TTITLE7=Stacy's Mom
TTITLE8=Deus, in Adjutorium
TTITLE9=Sweet Baby James
TTITLE10=Set Down Servant
TTITLE11=The Simpsons Theme
EXTD=
EXTT0=
EXTT1=
EXTT2=
EXTT3=
EXTT4=
EXTT5=
EXTT6=
EXTT7=
EXTT8=
EXTT9=
EXTT10=
EXTT11=
PLAYORDER=
